<mxfile host="app.diagrams.net" modified="2023-07-26T14:21:54.246Z" agent="Mozilla/5.0 (X11; Ubuntu; Linux x86_64; rv:109.0) Gecko/20100101 Firefox/115.0" etag="Ls5-yQFqzIOr_WlPvv-A" version="21.6.5" type="github">
  <diagram name="Halaman-1" id="2lCrTOcOA4yvUkynCQ19">
    <mxGraphModel dx="1130" dy="735" grid="1" gridSize="10" guides="1" tooltips="1" connect="1" arrows="1" fold="1" page="1" pageScale="1" pageWidth="827" pageHeight="1169" math="0" shadow="0">
      <root>
        <mxCell id="0" />
        <mxCell id="1" parent="0" />
        <mxCell id="ChmPbcpzLPWA6f1NTkVk-4" value="" style="endArrow=open;startArrow=none;endFill=0;startFill=0;endSize=8;html=1;verticalAlign=bottom;labelBackgroundColor=none;strokeWidth=1;rounded=0;fontColor=default;entryX=0.5;entryY=0;entryDx=0;entryDy=0;" parent="1" target="ChmPbcpzLPWA6f1NTkVk-25" edge="1">
          <mxGeometry width="160" relative="1" as="geometry">
            <mxPoint x="399.5" y="50" as="sourcePoint" />
            <mxPoint x="400" y="150" as="targetPoint" />
            <Array as="points">
              <mxPoint x="399.5" y="96" />
            </Array>
          </mxGeometry>
        </mxCell>
        <mxCell id="ChmPbcpzLPWA6f1NTkVk-1" value="START" style="strokeWidth=2;html=1;shape=mxgraph.flowchart.terminator;whiteSpace=wrap;labelBackgroundColor=none;" parent="1" vertex="1">
          <mxGeometry x="320" y="20" width="160" height="80" as="geometry" />
        </mxCell>
        <mxCell id="ChmPbcpzLPWA6f1NTkVk-6" value="LOG IN" style="shape=parallelogram;html=1;strokeWidth=2;perimeter=parallelogramPerimeter;whiteSpace=wrap;rounded=1;arcSize=12;size=0.23;labelBackgroundColor=none;" parent="1" vertex="1">
          <mxGeometry x="325" y="340" width="150" height="60" as="geometry" />
        </mxCell>
        <mxCell id="ChmPbcpzLPWA6f1NTkVk-7" value="" style="endArrow=open;startArrow=none;endFill=0;startFill=0;endSize=8;html=1;verticalAlign=bottom;labelBackgroundColor=none;strokeWidth=1;rounded=0;fontColor=default;entryX=0.5;entryY=0;entryDx=0;entryDy=0;" parent="1" target="ChmPbcpzLPWA6f1NTkVk-6" edge="1">
          <mxGeometry width="160" relative="1" as="geometry">
            <mxPoint x="399.5" y="230" as="sourcePoint" />
            <mxPoint x="400" y="330" as="targetPoint" />
            <Array as="points" />
          </mxGeometry>
        </mxCell>
        <mxCell id="ChmPbcpzLPWA6f1NTkVk-11" value="" style="endArrow=open;startArrow=none;endFill=0;startFill=0;endSize=8;html=1;verticalAlign=bottom;labelBackgroundColor=none;strokeWidth=1;rounded=0;fontColor=default;exitX=0.5;exitY=1;exitDx=0;exitDy=0;" parent="1" source="ChmPbcpzLPWA6f1NTkVk-6" target="ChmPbcpzLPWA6f1NTkVk-13" edge="1">
          <mxGeometry width="160" relative="1" as="geometry">
            <mxPoint x="399.5" y="410" as="sourcePoint" />
            <mxPoint x="400" y="510" as="targetPoint" />
            <Array as="points" />
          </mxGeometry>
        </mxCell>
        <mxCell id="ChmPbcpzLPWA6f1NTkVk-16" style="edgeStyle=orthogonalEdgeStyle;rounded=0;orthogonalLoop=1;jettySize=auto;html=1;exitX=0.5;exitY=1;exitDx=0;exitDy=0;labelBackgroundColor=none;fontColor=default;entryX=0.5;entryY=0;entryDx=0;entryDy=0;entryPerimeter=0;" parent="1" source="ChmPbcpzLPWA6f1NTkVk-13" target="ChmPbcpzLPWA6f1NTkVk-14" edge="1">
          <mxGeometry relative="1" as="geometry">
            <mxPoint x="400" y="690" as="targetPoint" />
          </mxGeometry>
        </mxCell>
        <mxCell id="ChmPbcpzLPWA6f1NTkVk-13" value="Ceck the Role" style="rounded=1;whiteSpace=wrap;html=1;absoluteArcSize=1;arcSize=14;strokeWidth=2;labelBackgroundColor=none;" parent="1" vertex="1">
          <mxGeometry x="350" y="520" width="100" height="100" as="geometry" />
        </mxCell>
        <mxCell id="ChmPbcpzLPWA6f1NTkVk-18" style="edgeStyle=orthogonalEdgeStyle;rounded=0;orthogonalLoop=1;jettySize=auto;html=1;exitX=1;exitY=0.5;exitDx=0;exitDy=0;exitPerimeter=0;labelBackgroundColor=none;fontColor=default;entryX=0;entryY=0.5;entryDx=0;entryDy=0;" parent="1" source="ChmPbcpzLPWA6f1NTkVk-14" target="ChmPbcpzLPWA6f1NTkVk-20" edge="1">
          <mxGeometry relative="1" as="geometry">
            <mxPoint x="600" y="760" as="targetPoint" />
          </mxGeometry>
        </mxCell>
        <mxCell id="ChmPbcpzLPWA6f1NTkVk-19" style="edgeStyle=orthogonalEdgeStyle;rounded=0;orthogonalLoop=1;jettySize=auto;html=1;exitX=0.5;exitY=1;exitDx=0;exitDy=0;exitPerimeter=0;labelBackgroundColor=none;fontColor=default;entryX=0.5;entryY=0;entryDx=0;entryDy=0;" parent="1" source="ChmPbcpzLPWA6f1NTkVk-14" target="ChmPbcpzLPWA6f1NTkVk-21" edge="1">
          <mxGeometry relative="1" as="geometry">
            <mxPoint x="400" y="920" as="targetPoint" />
          </mxGeometry>
        </mxCell>
        <mxCell id="ChmPbcpzLPWA6f1NTkVk-14" value="Admin" style="strokeWidth=2;html=1;shape=mxgraph.flowchart.decision;whiteSpace=wrap;labelBackgroundColor=none;" parent="1" vertex="1">
          <mxGeometry x="350" y="710" width="100" height="100" as="geometry" />
        </mxCell>
        <mxCell id="ChmPbcpzLPWA6f1NTkVk-74" value="" style="edgeStyle=orthogonalEdgeStyle;rounded=0;orthogonalLoop=1;jettySize=auto;html=1;labelBackgroundColor=none;fontColor=default;" parent="1" source="ChmPbcpzLPWA6f1NTkVk-20" target="ChmPbcpzLPWA6f1NTkVk-72" edge="1">
          <mxGeometry relative="1" as="geometry" />
        </mxCell>
        <mxCell id="ChmPbcpzLPWA6f1NTkVk-20" value="Admin" style="shape=parallelogram;html=1;strokeWidth=2;perimeter=parallelogramPerimeter;whiteSpace=wrap;rounded=1;arcSize=12;size=0.23;labelBackgroundColor=none;" parent="1" vertex="1">
          <mxGeometry x="822" y="730" width="100" height="60" as="geometry" />
        </mxCell>
        <mxCell id="ChmPbcpzLPWA6f1NTkVk-43" value="" style="edgeStyle=orthogonalEdgeStyle;rounded=0;orthogonalLoop=1;jettySize=auto;html=1;labelBackgroundColor=none;fontColor=default;" parent="1" source="ChmPbcpzLPWA6f1NTkVk-21" target="ChmPbcpzLPWA6f1NTkVk-41" edge="1">
          <mxGeometry relative="1" as="geometry" />
        </mxCell>
        <mxCell id="ChmPbcpzLPWA6f1NTkVk-21" value="User" style="shape=parallelogram;html=1;strokeWidth=2;perimeter=parallelogramPerimeter;whiteSpace=wrap;rounded=1;arcSize=12;size=0.23;labelBackgroundColor=none;" parent="1" vertex="1">
          <mxGeometry x="350" y="940" width="100" height="60" as="geometry" />
        </mxCell>
        <mxCell id="ChmPbcpzLPWA6f1NTkVk-23" value="Yes" style="text;html=1;align=center;verticalAlign=middle;resizable=0;points=[];autosize=1;strokeColor=none;fillColor=none;labelBackgroundColor=none;" parent="1" vertex="1">
          <mxGeometry x="505" y="720" width="40" height="30" as="geometry" />
        </mxCell>
        <mxCell id="ChmPbcpzLPWA6f1NTkVk-24" value="No" style="text;html=1;align=center;verticalAlign=middle;resizable=0;points=[];autosize=1;strokeColor=none;fillColor=none;labelBackgroundColor=none;" parent="1" vertex="1">
          <mxGeometry x="330" y="840" width="40" height="30" as="geometry" />
        </mxCell>
        <mxCell id="ChmPbcpzLPWA6f1NTkVk-26" style="edgeStyle=orthogonalEdgeStyle;rounded=0;orthogonalLoop=1;jettySize=auto;html=1;exitX=1;exitY=0.5;exitDx=0;exitDy=0;labelBackgroundColor=none;fontColor=default;" parent="1" source="ChmPbcpzLPWA6f1NTkVk-25" edge="1">
          <mxGeometry relative="1" as="geometry">
            <mxPoint x="680" y="210" as="targetPoint" />
          </mxGeometry>
        </mxCell>
        <mxCell id="ChmPbcpzLPWA6f1NTkVk-25" value="Ceck the Account " style="rounded=1;whiteSpace=wrap;html=1;absoluteArcSize=1;arcSize=14;strokeWidth=2;labelBackgroundColor=none;" parent="1" vertex="1">
          <mxGeometry x="350" y="160" width="100" height="100" as="geometry" />
        </mxCell>
        <mxCell id="ChmPbcpzLPWA6f1NTkVk-27" value="Exist" style="text;html=1;align=center;verticalAlign=middle;resizable=0;points=[];autosize=1;strokeColor=none;fillColor=none;labelBackgroundColor=none;" parent="1" vertex="1">
          <mxGeometry x="340" y="280" width="50" height="30" as="geometry" />
        </mxCell>
        <mxCell id="ChmPbcpzLPWA6f1NTkVk-28" value="Nothing" style="text;html=1;align=center;verticalAlign=middle;resizable=0;points=[];autosize=1;strokeColor=none;fillColor=none;labelBackgroundColor=none;" parent="1" vertex="1">
          <mxGeometry x="485" y="170" width="60" height="30" as="geometry" />
        </mxCell>
        <mxCell id="ChmPbcpzLPWA6f1NTkVk-34" value="" style="edgeStyle=segmentEdgeStyle;endArrow=classic;html=1;curved=0;rounded=0;endSize=8;startSize=8;exitX=0.5;exitY=1;exitDx=0;exitDy=0;entryX=1;entryY=0.5;entryDx=0;entryDy=0;labelBackgroundColor=none;fontColor=default;" parent="1" source="ChmPbcpzLPWA6f1NTkVk-86" target="ChmPbcpzLPWA6f1NTkVk-6" edge="1">
          <mxGeometry width="50" height="50" relative="1" as="geometry">
            <mxPoint x="721" y="231.98000000000002" as="sourcePoint" />
            <mxPoint x="510" y="370" as="targetPoint" />
            <Array as="points">
              <mxPoint x="747" y="370" />
            </Array>
          </mxGeometry>
        </mxCell>
        <mxCell id="ChmPbcpzLPWA6f1NTkVk-47" value="" style="edgeStyle=orthogonalEdgeStyle;rounded=0;orthogonalLoop=1;jettySize=auto;html=1;labelBackgroundColor=none;fontColor=default;" parent="1" source="ChmPbcpzLPWA6f1NTkVk-41" target="ChmPbcpzLPWA6f1NTkVk-46" edge="1">
          <mxGeometry relative="1" as="geometry" />
        </mxCell>
        <mxCell id="ChmPbcpzLPWA6f1NTkVk-50" style="edgeStyle=orthogonalEdgeStyle;rounded=0;orthogonalLoop=1;jettySize=auto;html=1;exitX=0.2;exitY=0.86;exitDx=0;exitDy=0;exitPerimeter=0;labelBackgroundColor=none;fontColor=default;" parent="1" source="ChmPbcpzLPWA6f1NTkVk-41" edge="1">
          <mxGeometry relative="1" as="geometry">
            <mxPoint x="200" y="1320" as="targetPoint" />
            <Array as="points">
              <mxPoint x="370" y="1200" />
              <mxPoint x="201" y="1200" />
            </Array>
          </mxGeometry>
        </mxCell>
        <mxCell id="ChmPbcpzLPWA6f1NTkVk-56" style="edgeStyle=orthogonalEdgeStyle;rounded=0;orthogonalLoop=1;jettySize=auto;html=1;exitX=1;exitY=0.5;exitDx=0;exitDy=0;exitPerimeter=0;entryX=0.5;entryY=0;entryDx=0;entryDy=0;entryPerimeter=0;labelBackgroundColor=none;fontColor=default;" parent="1" source="ChmPbcpzLPWA6f1NTkVk-41" edge="1">
          <mxGeometry relative="1" as="geometry">
            <mxPoint x="640" y="1320" as="targetPoint" />
          </mxGeometry>
        </mxCell>
        <mxCell id="ChmPbcpzLPWA6f1NTkVk-57" style="edgeStyle=orthogonalEdgeStyle;rounded=0;orthogonalLoop=1;jettySize=auto;html=1;exitX=0.92;exitY=0.14;exitDx=0;exitDy=0;exitPerimeter=0;entryX=0.5;entryY=0;entryDx=0;entryDy=0;entryPerimeter=0;labelBackgroundColor=none;fontColor=default;" parent="1" source="ChmPbcpzLPWA6f1NTkVk-41" target="ChmPbcpzLPWA6f1NTkVk-58" edge="1">
          <mxGeometry relative="1" as="geometry">
            <mxPoint x="850" y="1168" as="targetPoint" />
          </mxGeometry>
        </mxCell>
        <mxCell id="ChmPbcpzLPWA6f1NTkVk-61" style="edgeStyle=orthogonalEdgeStyle;rounded=0;orthogonalLoop=1;jettySize=auto;html=1;exitX=0.2;exitY=0.14;exitDx=0;exitDy=0;exitPerimeter=0;entryX=0.41;entryY=-0.033;entryDx=0;entryDy=0;entryPerimeter=0;labelBackgroundColor=none;fontColor=default;" parent="1" edge="1">
          <mxGeometry relative="1" as="geometry">
            <mxPoint x="40" y="1598.62" as="targetPoint" />
            <mxPoint x="379" y="1169" as="sourcePoint" />
          </mxGeometry>
        </mxCell>
        <mxCell id="ChmPbcpzLPWA6f1NTkVk-80" style="edgeStyle=orthogonalEdgeStyle;rounded=0;orthogonalLoop=1;jettySize=auto;html=1;exitX=0.2;exitY=0.14;exitDx=0;exitDy=0;exitPerimeter=0;labelBackgroundColor=none;fontColor=default;" parent="1" source="ChmPbcpzLPWA6f1NTkVk-41" edge="1">
          <mxGeometry relative="1" as="geometry">
            <mxPoint x="200" y="1110" as="targetPoint" />
          </mxGeometry>
        </mxCell>
        <mxCell id="ChmPbcpzLPWA6f1NTkVk-41" value="Dashboard" style="strokeWidth=2;html=1;shape=mxgraph.flowchart.display;whiteSpace=wrap;labelBackgroundColor=none;" parent="1" vertex="1">
          <mxGeometry x="350" y="1160" width="100" height="60" as="geometry" />
        </mxCell>
        <mxCell id="ChmPbcpzLPWA6f1NTkVk-49" value="" style="edgeStyle=orthogonalEdgeStyle;rounded=0;orthogonalLoop=1;jettySize=auto;html=1;labelBackgroundColor=none;fontColor=default;" parent="1" source="ChmPbcpzLPWA6f1NTkVk-46" target="ChmPbcpzLPWA6f1NTkVk-48" edge="1">
          <mxGeometry relative="1" as="geometry" />
        </mxCell>
        <mxCell id="mq3iDI-GHMtYQl5bMMJG-1" value="" style="edgeStyle=orthogonalEdgeStyle;rounded=0;orthogonalLoop=1;jettySize=auto;html=1;" edge="1" parent="1" source="ChmPbcpzLPWA6f1NTkVk-46" target="ChmPbcpzLPWA6f1NTkVk-51">
          <mxGeometry relative="1" as="geometry" />
        </mxCell>
        <mxCell id="ChmPbcpzLPWA6f1NTkVk-46" value="Searching" style="strokeWidth=2;html=1;shape=mxgraph.flowchart.terminator;whiteSpace=wrap;labelBackgroundColor=none;" parent="1" vertex="1">
          <mxGeometry x="350" y="1320" width="100" height="60" as="geometry" />
        </mxCell>
        <mxCell id="ChmPbcpzLPWA6f1NTkVk-48" value="Place" style="strokeWidth=2;html=1;shape=mxgraph.flowchart.database;whiteSpace=wrap;labelBackgroundColor=none;" parent="1" vertex="1">
          <mxGeometry x="360" y="1460" width="80" height="111" as="geometry" />
        </mxCell>
        <mxCell id="ChmPbcpzLPWA6f1NTkVk-53" style="edgeStyle=orthogonalEdgeStyle;rounded=0;orthogonalLoop=1;jettySize=auto;html=1;exitX=0.5;exitY=1;exitDx=0;exitDy=0;exitPerimeter=0;labelBackgroundColor=none;fontColor=default;" parent="1" source="ChmPbcpzLPWA6f1NTkVk-51" edge="1">
          <mxGeometry relative="1" as="geometry">
            <mxPoint x="350" y="1520" as="targetPoint" />
            <Array as="points">
              <mxPoint x="200" y="1470" />
              <mxPoint x="200" y="1470" />
            </Array>
          </mxGeometry>
        </mxCell>
        <mxCell id="ChmPbcpzLPWA6f1NTkVk-93" value="Take From" style="edgeLabel;html=1;align=center;verticalAlign=middle;resizable=0;points=[];labelBackgroundColor=none;" parent="ChmPbcpzLPWA6f1NTkVk-53" vertex="1" connectable="0">
          <mxGeometry x="-0.5288" y="1" relative="1" as="geometry">
            <mxPoint as="offset" />
          </mxGeometry>
        </mxCell>
        <mxCell id="ChmPbcpzLPWA6f1NTkVk-91" style="edgeStyle=orthogonalEdgeStyle;rounded=0;orthogonalLoop=1;jettySize=auto;html=1;exitX=0;exitY=0.5;exitDx=0;exitDy=0;exitPerimeter=0;labelBackgroundColor=none;fontColor=default;" parent="1" source="ChmPbcpzLPWA6f1NTkVk-51" edge="1">
          <mxGeometry relative="1" as="geometry">
            <mxPoint x="485" y="1640" as="targetPoint" />
            <mxPoint x="115" y="1350" as="sourcePoint" />
            <Array as="points">
              <mxPoint x="95" y="1350" />
              <mxPoint x="95" y="1640" />
            </Array>
          </mxGeometry>
        </mxCell>
        <mxCell id="ChmPbcpzLPWA6f1NTkVk-92" value="Store To" style="edgeLabel;html=1;align=center;verticalAlign=middle;resizable=0;points=[];labelBackgroundColor=none;" parent="ChmPbcpzLPWA6f1NTkVk-91" vertex="1" connectable="0">
          <mxGeometry x="0.086" y="1" relative="1" as="geometry">
            <mxPoint x="1" as="offset" />
          </mxGeometry>
        </mxCell>
        <mxCell id="ChmPbcpzLPWA6f1NTkVk-51" value="Maps Navigation" style="strokeWidth=2;html=1;shape=mxgraph.flowchart.terminator;whiteSpace=wrap;labelBackgroundColor=none;" parent="1" vertex="1">
          <mxGeometry x="150" y="1320" width="100" height="60" as="geometry" />
        </mxCell>
        <mxCell id="ChmPbcpzLPWA6f1NTkVk-65" value="" style="edgeStyle=orthogonalEdgeStyle;rounded=0;orthogonalLoop=1;jettySize=auto;html=1;labelBackgroundColor=none;fontColor=default;" parent="1" target="ChmPbcpzLPWA6f1NTkVk-59" edge="1">
          <mxGeometry relative="1" as="geometry">
            <mxPoint x="640" y="1380" as="sourcePoint" />
            <Array as="points">
              <mxPoint x="640" y="1350" />
              <mxPoint x="520" y="1350" />
            </Array>
          </mxGeometry>
        </mxCell>
        <mxCell id="ChmPbcpzLPWA6f1NTkVk-100" value="Take From" style="edgeLabel;html=1;align=center;verticalAlign=middle;resizable=0;points=[];labelBackgroundColor=none;" parent="ChmPbcpzLPWA6f1NTkVk-65" vertex="1" connectable="0">
          <mxGeometry x="0.241" y="-1" relative="1" as="geometry">
            <mxPoint as="offset" />
          </mxGeometry>
        </mxCell>
        <mxCell id="ChmPbcpzLPWA6f1NTkVk-102" value="Capable to Update" style="edgeLabel;html=1;align=center;verticalAlign=middle;resizable=0;points=[];labelBackgroundColor=none;" parent="ChmPbcpzLPWA6f1NTkVk-65" vertex="1" connectable="0">
          <mxGeometry x="-0.0343" y="1" relative="1" as="geometry">
            <mxPoint as="offset" />
          </mxGeometry>
        </mxCell>
        <mxCell id="ChmPbcpzLPWA6f1NTkVk-67" style="edgeStyle=orthogonalEdgeStyle;rounded=0;orthogonalLoop=1;jettySize=auto;html=1;exitX=1;exitY=0.5;exitDx=0;exitDy=0;exitPerimeter=0;labelBackgroundColor=none;fontColor=default;" parent="1" target="ChmPbcpzLPWA6f1NTkVk-66" edge="1">
          <mxGeometry relative="1" as="geometry">
            <mxPoint x="690" y="1350" as="sourcePoint" />
            <Array as="points">
              <mxPoint x="730" y="1350" />
            </Array>
          </mxGeometry>
        </mxCell>
        <mxCell id="ChmPbcpzLPWA6f1NTkVk-58" value="&lt;span class=&quot;ILfuVd&quot; lang=&quot;id&quot;&gt;Advertising&lt;/span&gt;" style="strokeWidth=2;html=1;shape=mxgraph.flowchart.terminator;whiteSpace=wrap;labelBackgroundColor=none;" parent="1" vertex="1">
          <mxGeometry x="780" y="1320" width="100" height="60" as="geometry" />
        </mxCell>
        <mxCell id="ChmPbcpzLPWA6f1NTkVk-59" value="User" style="strokeWidth=2;html=1;shape=mxgraph.flowchart.database;whiteSpace=wrap;labelBackgroundColor=none;" parent="1" vertex="1">
          <mxGeometry x="485" y="1590" width="80" height="100" as="geometry" />
        </mxCell>
        <mxCell id="ChmPbcpzLPWA6f1NTkVk-64" style="edgeStyle=orthogonalEdgeStyle;rounded=0;orthogonalLoop=1;jettySize=auto;html=1;exitX=0.5;exitY=1;exitDx=0;exitDy=0;exitPerimeter=0;labelBackgroundColor=none;fontColor=default;" parent="1" source="ChmPbcpzLPWA6f1NTkVk-62" target="ChmPbcpzLPWA6f1NTkVk-63" edge="1">
          <mxGeometry relative="1" as="geometry" />
        </mxCell>
        <mxCell id="ChmPbcpzLPWA6f1NTkVk-62" value="Log Out" style="strokeWidth=2;html=1;shape=mxgraph.flowchart.terminator;whiteSpace=wrap;labelBackgroundColor=none;" parent="1" vertex="1">
          <mxGeometry x="-10" y="1600" width="100" height="60" as="geometry" />
        </mxCell>
        <mxCell id="ChmPbcpzLPWA6f1NTkVk-63" value="Exit" style="strokeWidth=2;html=1;shape=mxgraph.flowchart.terminator;whiteSpace=wrap;labelBackgroundColor=none;" parent="1" vertex="1">
          <mxGeometry x="-10" y="1800" width="100" height="60" as="geometry" />
        </mxCell>
        <mxCell id="ChmPbcpzLPWA6f1NTkVk-68" style="edgeStyle=orthogonalEdgeStyle;rounded=0;orthogonalLoop=1;jettySize=auto;html=1;exitX=0.5;exitY=1;exitDx=0;exitDy=0;exitPerimeter=0;entryX=1;entryY=0.667;entryDx=0;entryDy=0;entryPerimeter=0;labelBackgroundColor=none;fontColor=default;" parent="1" source="ChmPbcpzLPWA6f1NTkVk-66" target="ChmPbcpzLPWA6f1NTkVk-63" edge="1">
          <mxGeometry relative="1" as="geometry">
            <mxPoint x="730" y="1842" as="targetPoint" />
          </mxGeometry>
        </mxCell>
        <mxCell id="ChmPbcpzLPWA6f1NTkVk-66" value="Log Out" style="strokeWidth=2;html=1;shape=mxgraph.flowchart.terminator;whiteSpace=wrap;labelBackgroundColor=none;" parent="1" vertex="1">
          <mxGeometry x="680" y="1600" width="100" height="60" as="geometry" />
        </mxCell>
        <mxCell id="ChmPbcpzLPWA6f1NTkVk-69" value="&lt;div&gt;Super Admin&lt;/div&gt;" style="text;html=1;align=center;verticalAlign=middle;resizable=0;points=[];autosize=1;strokeColor=none;fillColor=none;labelBackgroundColor=none;" parent="1" vertex="1">
          <mxGeometry x="827" y="1290" width="90" height="30" as="geometry" />
        </mxCell>
        <mxCell id="ChmPbcpzLPWA6f1NTkVk-71" value="Nearby" style="text;html=1;align=center;verticalAlign=middle;resizable=0;points=[];autosize=1;strokeColor=none;fillColor=none;labelBackgroundColor=none;" parent="1" vertex="1">
          <mxGeometry x="140" y="1398" width="60" height="30" as="geometry" />
        </mxCell>
        <mxCell id="ChmPbcpzLPWA6f1NTkVk-77" style="edgeStyle=orthogonalEdgeStyle;rounded=0;orthogonalLoop=1;jettySize=auto;html=1;exitX=0;exitY=0.5;exitDx=0;exitDy=0;exitPerimeter=0;entryX=0.5;entryY=0;entryDx=0;entryDy=0;entryPerimeter=0;labelBackgroundColor=none;fontColor=default;" parent="1" source="ChmPbcpzLPWA6f1NTkVk-72" target="ChmPbcpzLPWA6f1NTkVk-79" edge="1">
          <mxGeometry relative="1" as="geometry">
            <mxPoint x="595" y="1000" as="targetPoint" />
            <Array as="points">
              <mxPoint x="595" y="910" />
            </Array>
          </mxGeometry>
        </mxCell>
        <mxCell id="ChmPbcpzLPWA6f1NTkVk-84" style="edgeStyle=orthogonalEdgeStyle;rounded=0;orthogonalLoop=1;jettySize=auto;html=1;exitX=1;exitY=0.5;exitDx=0;exitDy=0;exitPerimeter=0;entryX=0;entryY=0.25;entryDx=0;entryDy=0;labelBackgroundColor=none;fontColor=default;" parent="1" source="ChmPbcpzLPWA6f1NTkVk-72" edge="1">
          <mxGeometry relative="1" as="geometry">
            <mxPoint x="1105.470852017937" y="909.641255605381" as="targetPoint" />
          </mxGeometry>
        </mxCell>
        <mxCell id="ChmPbcpzLPWA6f1NTkVk-96" value="" style="edgeStyle=orthogonalEdgeStyle;rounded=0;orthogonalLoop=1;jettySize=auto;html=1;labelBackgroundColor=none;fontColor=default;" parent="1" source="ChmPbcpzLPWA6f1NTkVk-72" target="ChmPbcpzLPWA6f1NTkVk-95" edge="1">
          <mxGeometry relative="1" as="geometry" />
        </mxCell>
        <mxCell id="ChmPbcpzLPWA6f1NTkVk-128" style="edgeStyle=orthogonalEdgeStyle;rounded=0;orthogonalLoop=1;jettySize=auto;html=1;exitX=0.2;exitY=0.14;exitDx=0;exitDy=0;exitPerimeter=0;labelBackgroundColor=none;fontColor=default;" parent="1" source="ChmPbcpzLPWA6f1NTkVk-72" target="ChmPbcpzLPWA6f1NTkVk-127" edge="1">
          <mxGeometry relative="1" as="geometry" />
        </mxCell>
        <mxCell id="ChmPbcpzLPWA6f1NTkVk-72" value="Dashboard" style="strokeWidth=2;html=1;shape=mxgraph.flowchart.display;whiteSpace=wrap;labelBackgroundColor=none;" parent="1" vertex="1">
          <mxGeometry x="822" y="880" width="100" height="60" as="geometry" />
        </mxCell>
        <mxCell id="ChmPbcpzLPWA6f1NTkVk-78" value="Profile" style="strokeWidth=2;html=1;shape=mxgraph.flowchart.display;whiteSpace=wrap;labelBackgroundColor=none;" parent="1" vertex="1">
          <mxGeometry x="590" y="1320" width="100" height="60" as="geometry" />
        </mxCell>
        <mxCell id="ChmPbcpzLPWA6f1NTkVk-79" value="Like a User" style="strokeWidth=2;html=1;shape=mxgraph.flowchart.display;whiteSpace=wrap;labelBackgroundColor=none;" parent="1" vertex="1">
          <mxGeometry x="545" y="990" width="100" height="60" as="geometry" />
        </mxCell>
        <mxCell id="ChmPbcpzLPWA6f1NTkVk-81" value="Options" style="strokeWidth=2;html=1;shape=mxgraph.flowchart.display;whiteSpace=wrap;labelBackgroundColor=none;" parent="1" vertex="1">
          <mxGeometry x="150" y="1050" width="100" height="60" as="geometry" />
        </mxCell>
        <mxCell id="ChmPbcpzLPWA6f1NTkVk-82" value="If Admin is a Sidaq Person" style="text;html=1;align=center;verticalAlign=middle;resizable=0;points=[];autosize=1;strokeColor=none;fillColor=none;labelBackgroundColor=none;" parent="1" vertex="1">
          <mxGeometry x="810" y="700" width="160" height="30" as="geometry" />
        </mxCell>
        <mxCell id="ChmPbcpzLPWA6f1NTkVk-86" value="Regestration" style="shape=parallelogram;html=1;strokeWidth=2;perimeter=parallelogramPerimeter;whiteSpace=wrap;rounded=1;arcSize=12;size=0.23;labelBackgroundColor=none;" parent="1" vertex="1">
          <mxGeometry x="672" y="170" width="150" height="60" as="geometry" />
        </mxCell>
        <mxCell id="ChmPbcpzLPWA6f1NTkVk-114" style="edgeStyle=orthogonalEdgeStyle;rounded=0;orthogonalLoop=1;jettySize=auto;html=1;exitX=0.576;exitY=1.042;exitDx=0;exitDy=0;entryX=0.704;entryY=1;entryDx=0;entryDy=0;entryPerimeter=0;exitPerimeter=0;labelBackgroundColor=none;fontColor=default;" parent="1" edge="1">
          <mxGeometry relative="1" as="geometry">
            <mxPoint x="1282.6400000000003" y="1150" as="targetPoint" />
            <mxPoint x="869.9999999999999" y="1052.52" as="sourcePoint" />
            <Array as="points">
              <mxPoint x="870.4" y="1290" />
              <mxPoint x="1282.4" y="1290" />
            </Array>
          </mxGeometry>
        </mxCell>
        <mxCell id="ChmPbcpzLPWA6f1NTkVk-126" value="Data Addition" style="edgeLabel;html=1;align=center;verticalAlign=middle;resizable=0;points=[];labelBackgroundColor=none;" parent="ChmPbcpzLPWA6f1NTkVk-114" vertex="1" connectable="0">
          <mxGeometry x="-0.8672" y="-2" relative="1" as="geometry">
            <mxPoint as="offset" />
          </mxGeometry>
        </mxCell>
        <mxCell id="ChmPbcpzLPWA6f1NTkVk-95" value="&lt;div&gt;Add&lt;/div&gt;&lt;div&gt;Place&lt;/div&gt;" style="shape=parallelogram;html=1;strokeWidth=2;perimeter=parallelogramPerimeter;whiteSpace=wrap;rounded=1;arcSize=12;size=0.23;labelBackgroundColor=none;" parent="1" vertex="1">
          <mxGeometry x="822" y="990" width="100" height="60" as="geometry" />
        </mxCell>
        <mxCell id="ChmPbcpzLPWA6f1NTkVk-105" style="edgeStyle=orthogonalEdgeStyle;rounded=0;orthogonalLoop=1;jettySize=auto;html=1;exitX=0.5;exitY=1;exitDx=0;exitDy=0;exitPerimeter=0;entryX=0.5;entryY=0;entryDx=0;entryDy=0;entryPerimeter=0;labelBackgroundColor=none;fontColor=default;" parent="1" source="ChmPbcpzLPWA6f1NTkVk-97" target="ChmPbcpzLPWA6f1NTkVk-106" edge="1">
          <mxGeometry relative="1" as="geometry">
            <mxPoint x="1159.6315789473688" y="1030" as="targetPoint" />
          </mxGeometry>
        </mxCell>
        <mxCell id="ChmPbcpzLPWA6f1NTkVk-109" value="Capable to Update" style="edgeLabel;html=1;align=center;verticalAlign=middle;resizable=0;points=[];labelBackgroundColor=none;" parent="ChmPbcpzLPWA6f1NTkVk-105" vertex="1" connectable="0">
          <mxGeometry x="-0.3284" y="-2" relative="1" as="geometry">
            <mxPoint as="offset" />
          </mxGeometry>
        </mxCell>
        <mxCell id="ChmPbcpzLPWA6f1NTkVk-110" value="Take From" style="edgeLabel;html=1;align=center;verticalAlign=middle;resizable=0;points=[];labelBackgroundColor=none;" parent="ChmPbcpzLPWA6f1NTkVk-105" vertex="1" connectable="0">
          <mxGeometry x="0.5004" y="-1" relative="1" as="geometry">
            <mxPoint as="offset" />
          </mxGeometry>
        </mxCell>
        <mxCell id="ChmPbcpzLPWA6f1NTkVk-117" style="edgeStyle=orthogonalEdgeStyle;rounded=0;orthogonalLoop=1;jettySize=auto;html=1;exitX=1;exitY=0.5;exitDx=0;exitDy=0;exitPerimeter=0;entryX=0.5;entryY=0;entryDx=0;entryDy=0;entryPerimeter=0;labelBackgroundColor=none;fontColor=default;" parent="1" source="ChmPbcpzLPWA6f1NTkVk-97" target="ChmPbcpzLPWA6f1NTkVk-108" edge="1">
          <mxGeometry relative="1" as="geometry" />
        </mxCell>
        <mxCell id="ChmPbcpzLPWA6f1NTkVk-118" value="Capable to Update" style="edgeLabel;html=1;align=center;verticalAlign=middle;resizable=0;points=[];labelBackgroundColor=none;" parent="ChmPbcpzLPWA6f1NTkVk-117" vertex="1" connectable="0">
          <mxGeometry x="-0.1012" y="4" relative="1" as="geometry">
            <mxPoint x="-4" as="offset" />
          </mxGeometry>
        </mxCell>
        <mxCell id="ChmPbcpzLPWA6f1NTkVk-119" value="Take From" style="edgeLabel;html=1;align=center;verticalAlign=middle;resizable=0;points=[];labelBackgroundColor=none;" parent="ChmPbcpzLPWA6f1NTkVk-117" vertex="1" connectable="0">
          <mxGeometry x="0.4633" y="-2" relative="1" as="geometry">
            <mxPoint as="offset" />
          </mxGeometry>
        </mxCell>
        <mxCell id="ChmPbcpzLPWA6f1NTkVk-120" style="edgeStyle=orthogonalEdgeStyle;rounded=0;orthogonalLoop=1;jettySize=auto;html=1;exitX=1;exitY=0.5;exitDx=0;exitDy=0;exitPerimeter=0;labelBackgroundColor=none;fontColor=default;" parent="1" source="ChmPbcpzLPWA6f1NTkVk-97" edge="1">
          <mxGeometry relative="1" as="geometry">
            <mxPoint x="1440" y="910.421052631579" as="targetPoint" />
          </mxGeometry>
        </mxCell>
        <mxCell id="ChmPbcpzLPWA6f1NTkVk-97" value="Profile" style="strokeWidth=2;html=1;shape=mxgraph.flowchart.display;whiteSpace=wrap;labelBackgroundColor=none;" parent="1" vertex="1">
          <mxGeometry x="1110" y="880" width="100" height="60" as="geometry" />
        </mxCell>
        <mxCell id="ChmPbcpzLPWA6f1NTkVk-106" value="User" style="strokeWidth=2;html=1;shape=mxgraph.flowchart.database;whiteSpace=wrap;labelBackgroundColor=none;" parent="1" vertex="1">
          <mxGeometry x="1130" y="1090" width="60" height="100" as="geometry" />
        </mxCell>
        <mxCell id="ChmPbcpzLPWA6f1NTkVk-108" value="Place" style="strokeWidth=2;html=1;shape=mxgraph.flowchart.database;whiteSpace=wrap;labelBackgroundColor=none;" parent="1" vertex="1">
          <mxGeometry x="1250" y="1060" width="60" height="90" as="geometry" />
        </mxCell>
        <mxCell id="ChmPbcpzLPWA6f1NTkVk-124" style="edgeStyle=orthogonalEdgeStyle;rounded=0;orthogonalLoop=1;jettySize=auto;html=1;exitX=0.5;exitY=1;exitDx=0;exitDy=0;exitPerimeter=0;entryX=0.5;entryY=0.5;entryDx=0;entryDy=0;entryPerimeter=0;labelBackgroundColor=none;fontColor=default;" parent="1" source="ChmPbcpzLPWA6f1NTkVk-122" edge="1">
          <mxGeometry relative="1" as="geometry">
            <mxPoint x="40" y="1860" as="targetPoint" />
            <mxPoint x="1490" y="970" as="sourcePoint" />
            <Array as="points">
              <mxPoint x="1490" y="1870" />
              <mxPoint x="40" y="1870" />
            </Array>
          </mxGeometry>
        </mxCell>
        <mxCell id="ChmPbcpzLPWA6f1NTkVk-122" value="Log Out" style="strokeWidth=2;html=1;shape=mxgraph.flowchart.terminator;whiteSpace=wrap;labelBackgroundColor=none;" parent="1" vertex="1">
          <mxGeometry x="1440" y="880" width="100" height="60" as="geometry" />
        </mxCell>
        <mxCell id="ChmPbcpzLPWA6f1NTkVk-127" value="Options" style="strokeWidth=2;html=1;shape=mxgraph.flowchart.display;whiteSpace=wrap;labelBackgroundColor=none;" parent="1" vertex="1">
          <mxGeometry x="660" y="800" width="100" height="60" as="geometry" />
        </mxCell>
      </root>
    </mxGraphModel>
  </diagram>
</mxfile>
